<?xml version="1.0" encoding="iso-8859-1"?>
<!-- Generator: Adobe Illustrator 18.1.1, SVG Export Plug-In . SVG Version: 6.00 Build 0)  -->
<svg version="1.1" id="Layer_1" xmlns="http://www.w3.org/2000/svg" xmlns:xlink="http://www.w3.org/1999/xlink" x="0px" y="0px"
	 viewBox="0 0 612 730.097" style="enable-background:new 0 0 612 730.097;" xml:space="preserve">
<path d="M370.278,601.468c0.637-0.45,1.119-0.604,1.192-0.87c2.216-8.069,8.829-9.201,15.748-10.785
	c46.036-10.54,87.587-30.371,123.937-60.74c13.154-10.989,25.041-23.188,35.233-36.999c0.427-0.579,0.785-1.209,1.406-2.173
	c-1.15-1.1-2.295-2.192-3.436-3.29c-6.539-6.291-13.087-12.571-19.601-18.888c-0.907-0.88-1.593-1.984-2.46-2.911
	c-5.302-5.663-5.902-11.816-1.85-18.378c4.575-7.409,8.911-14.993,13.919-22.101c18.219-25.858,38.474-50.117,58.943-74.199
	c0.582-0.685,0.97-1.534,1.449-2.306c0.443,0.131,0.885,0.262,1.328,0.393c0.351,2,0.797,3.989,1.041,6.002
	c10.451,86.29-12.576,162.457-69.304,228.325c-31.751,36.867-69.824,65.998-111.716,90.362
	c-33.351,19.397-68.319,35.226-104.887,47.548c-4.295,1.447-8.236,1.704-12.641,0.201
	c-66.473-22.678-127.501-55.078-180.675-101.378c-31.372-27.317-57.661-58.828-76.958-95.879
	c-16.891-32.431-26.999-66.848-30.125-103.312c-1.946-22.71-1.284-45.348,1.514-67.944c0.154-1.24,0.538-2.452,0.928-4.18
	c1.069,0.879,1.937,1.402,2.56,2.134c20.492,24.062,40.695,48.359,58.997,74.158c3.988,5.621,7.621,11.498,11.281,17.343
	c1.438,2.297,2.426,4.87,3.753,7.243c2.863,5.117,1.984,9.821-1.61,14.106c-3.379,4.029-6.804,8.043-10.5,11.775
	c-3.956,3.995-8.252,7.654-12.4,11.459c-1.32,1.211-2.642,2.418-4.062,3.718c8.946,12.59,19.148,23.619,30.43,33.662
	c37.558,33.432,81.265,54.831,130.021,66.315c3.53,0.832,7.661,0.726,10.455,2.618c2.755,1.865,4.165,5.716,6.44,9.105
	c0.842-1.126,1.781-2.128,2.432-3.291c14.577-26.06,24.824-53.5,28.455-83.402c4.249-34.994,6.869-70.09,8.748-105.269
	c3.07-57.491,4.507-115.034,5.529-172.588c0.203-11.422,0.377-22.889-0.382-34.272c-1.129-16.945-6.161-32.865-16.139-46.763
	c-3.979-5.543-8.925-10.516-13.996-15.127c-17.385-15.812-26.467-35.331-26.272-58.78c0.343-41.189,33.761-74.2,75.008-75.418
	c37.282-1.101,67.629,22.636,76.61,53.769c8.984,31.144,1.525,58.469-22.699,80.076c-18.317,16.338-27.245,36.681-30.025,60.375
	c-2.063,17.58-0.583,35.193-0.162,52.788c0.77,32.132,1.272,64.278,2.641,96.386c1.616,37.908,3.873,75.792,6.16,113.668
	c1.357,22.474,3.932,44.835,7.773,67.042C345.841,551.198,359.329,585.593,370.278,601.468z M304.553,124.593
	c16.277,0.001,30.413-7.962,37.539-21.711c7.44-14.355,6.968-28.702-1.799-42.35c-12.972-20.196-41.939-25.177-61.339-10.645
	c-11.709,8.77-17.641,20.731-16.811,35.285C263.458,108.213,281.443,124.592,304.553,124.593z"/>
</svg>
